<svg width="225" height="185" viewBox="0 0 225 185" fill="none" xmlns="http://www.w3.org/2000/svg">
<path d="M106.698 49.4399C110.309 47.4457 114.691 47.4457 118.302 49.4399L212.188 101.301C220.452 105.866 220.452 117.744 212.188 122.309L118.302 174.17C114.691 176.165 110.309 176.165 106.698 174.17L12.8115 122.309C4.54786 117.744 4.54782 105.866 12.8115 101.301L106.698 49.4399Z" fill="#080060" fill-opacity="0.8" stroke="#FEF6F6" stroke-width="6"/>
<path d="M106.597 4.55298C110.26 2.48281 114.74 2.48282 118.403 4.55298L212.609 57.7864C220.738 62.3796 220.738 74.0876 212.609 78.6809L118.403 131.915C114.74 133.985 110.26 133.985 106.597 131.915L12.3906 78.6809C4.26209 74.0876 4.26208 62.3797 12.3906 57.7864L106.597 4.55298Z" fill="#083EFF" fill-opacity="0.8" stroke="#E0E5F7" stroke-width="6"/>
<path d="M182.234 65.2624C180.678 99.0012 235.013 115.748 190.402 170.947" stroke="#353131" stroke-width="10" stroke-linecap="round"/>
<path d="M185.5 166.162C189.867 166.162 193.5 170.138 193.5 175.162C193.5 180.187 189.867 184.162 185.5 184.162C181.133 184.162 177.5 180.187 177.5 175.162C177.5 170.138 181.133 166.162 185.5 166.162Z" fill="#1F1F1F" stroke="#353131"/>
</svg>
